# This file uses centimeters as units for non-parametric coordinates.

mtllib tree_dead1.mtl
v 0.010392 -0.089094 0.003037
v 0.006887 -0.089094 -0.248801
v 0.205104 -0.089094 -0.156725
v 0.256697 -0.089094 0.055659
v -0.234353 -0.089094 0.062499
v -0.188694 -0.089094 -0.151239
v 0.122821 -0.089094 0.228419
v -0.095721 -0.089094 0.231466
v 0.085927 0.394584 -0.100309
v 0.142913 0.394584 0.018026
v -0.042118 0.394584 -0.129531
v -0.144800 0.394584 -0.047641
v -0.144800 0.394584 0.083694
v -0.042118 0.394584 0.165584
v 0.085927 0.394584 0.136353
v 0.078133 0.878261 -0.082002
v 0.121503 0.878261 0.008065
v -0.019325 0.878261 -0.104243
v -0.097477 0.878261 -0.041922
v -0.097477 0.878261 0.058042
v -0.019325 0.878261 0.120373
v 0.078133 0.878261 0.098122
v 0.091525 1.361938 -0.085581
v 0.130306 1.361938 -0.005037
v 0.004373 1.361938 -0.105467
v -0.065518 1.361938 -0.049734
v -0.065518 1.361938 0.039660
v 0.004373 1.361938 0.095394
v 0.091525 1.361938 0.075498
v 0.070798 1.845625 -0.072807
v 0.109738 1.845625 0.008065
v -0.016709 1.845625 -0.092777
v -0.086880 1.845625 -0.036810
v -0.086880 1.845625 0.052939
v -0.016709 1.845625 0.108906
v 0.070798 1.845625 0.088927
v 0.051790 2.423135 -0.048977
v 0.079264 2.423135 0.008065
v -0.009924 2.423135 -0.063060
v -0.059425 2.423135 -0.023587
v -0.059425 2.423135 0.039716
v -0.009924 2.423135 0.079189
v 0.051790 2.423135 0.065097
v 0.006308 2.423135 0.008065
vt 0.500000 0.000000
vt 0.739900 0.000000
vt 0.892900 0.000000
vt 0.750000 0.000000
vt 0.321400 0.000000
vt 0.178600 0.000000
vt 0.035700 0.000000
vt 0.607100 0.000000
vt 0.464300 0.000000
vt 0.892900 0.200000
vt 0.750000 0.200000
vt -0.107100 0.000000
vt 0.035700 0.200000
vt -0.107100 0.200000
vt 0.178600 0.200000
vt 0.321400 0.200000
vt 0.464300 0.200000
vt 0.607100 0.200000
vt 0.892900 0.400000
vt 0.750000 0.400000
vt 0.035700 0.400000
vt -0.107100 0.400000
vt 0.178600 0.400000
vt 0.321400 0.400000
vt 0.464300 0.400000
vt 0.607100 0.400000
vt 0.892900 0.600000
vt 0.750000 0.600000
vt 0.035700 0.600000
vt -0.107100 0.600000
vt 0.178600 0.600000
vt 0.321400 0.600000
vt 0.464300 0.600000
vt 0.607100 0.600000
vt 0.892900 0.800000
vt 0.750000 0.800000
vt 0.035700 0.800000
vt -0.107100 0.800000
vt 0.178600 0.800000
vt 0.321400 0.800000
vt 0.464300 0.800000
vt 0.607100 0.800000
vt 0.892900 1.000000
vt 0.750000 1.000000
vt 0.035700 1.000000
vt -0.107100 1.000000
vt 0.178600 1.000000
vt 0.321400 1.000000
vt 0.464300 1.000000
vt 0.607100 1.000000
vt 0.500000 1.000000
vn 0.000000 -1.000000 0.000000
vn 0.000000 -1.000000 0.000000
vn 0.000000 -1.000000 0.000000
vn 0.000000 -1.000000 0.000000
vn 0.000000 -1.000000 0.000000
vn 0.000000 -1.000000 0.000000
vn 0.000000 -1.000000 0.000000
vn 0.000000 -1.000000 0.000000
vn 0.963041 0.236468 0.128977
vn 0.697595 0.250213 -0.671383
vn 0.665612 0.146353 -0.731807
vn 0.987792 0.141559 0.065022
vn -0.091946 0.229748 -0.968897
vn -0.157584 0.146561 -0.976569
vn -0.821972 0.189741 -0.536992
vn -0.862155 0.141822 -0.486391
vn -0.937682 0.160142 0.308395
vn -0.918828 0.135653 0.370611
vn -0.344498 0.164023 0.924347
vn -0.283510 0.132935 0.949711
vn 0.503781 0.198312 0.840760
vn 0.565338 0.135650 0.813629
vn 0.623471 0.008292 -0.781803
vn 0.999915 0.013018 -0.000020
vn -0.222169 0.034896 -0.974383
vn -0.898372 0.072670 -0.433181
vn -0.897097 0.093162 0.431900
vn -0.221341 0.081125 0.971816
vn 0.623127 0.045491 0.780796
vn 0.623359 0.012146 -0.781841
vn 0.999926 0.012150 0.000177
vn -0.222559 0.012153 -0.974844
vn -0.900760 0.012139 -0.434148
vn -0.900936 0.012118 0.433784
vn -0.222161 0.012131 0.974934
vn 0.623522 0.012153 0.781711
vn 0.622647 0.050007 -0.780903
vn 0.998867 0.047593 0.000133
vn -0.222491 0.034300 -0.974331
vn -0.900856 0.012275 -0.433944
vn -0.900985 0.000530 0.433849
vn -0.222368 0.007919 0.974931
vn 0.623232 0.028870 0.781504
vn 0.622611 0.052705 -0.780755
vn 0.998610 0.052703 0.000026
vn -0.222242 0.052704 -0.973566
vn -0.899723 0.052698 -0.433269
vn -0.899723 0.052698 0.433269
vn -0.222184 0.052705 0.973579
vn 0.622637 0.052703 0.780734
vn 0.000000 1.000000 0.000001
vn 0.000000 1.000000 0.000002
vn 0.000000 1.000000 0.000000
vn 0.000000 1.000000 0.000000
vn 0.000000 1.000000 0.000000
vn 0.000000 1.000000 -0.000001
vn 0.000000 1.000000 -0.000002
vn 0.000000 1.000000 0.000001
s 1
usemtl 02___Default
f 1/1/1 2/2/2 3/3/3 4/4/4
f 1/1/1 5/5/5 6/6/6 2/7/2
f 1/1/1 7/8/7 8/9/8 5/5/5
f 1/1/1 4/4/4 7/8/7
s 2
f 4/4/9 3/3/10 9/10/11 10/11/12
f 3/12/10 2/7/13 11/13/14 9/14/11
f 2/7/13 6/6/15 12/15/16 11/13/14
f 6/6/15 5/5/17 13/16/18 12/15/16
f 5/5/17 8/9/19 14/17/20 13/16/18
f 8/9/19 7/8/21 15/18/22 14/17/20
f 7/8/21 4/4/9 10/11/12 15/18/22
f 10/11/12 9/10/11 16/19/23 17/20/24
f 9/14/11 11/13/14 18/21/25 16/22/23
f 11/13/14 12/15/16 19/23/26 18/21/25
f 12/15/16 13/16/18 20/24/27 19/23/26
f 13/16/18 14/17/20 21/25/28 20/24/27
f 14/17/20 15/18/22 22/26/29 21/25/28
f 15/18/22 10/11/12 17/20/24 22/26/29
f 17/20/24 16/19/23 23/27/30 24/28/31
f 16/22/23 18/21/25 25/29/32 23/30/30
f 18/21/25 19/23/26 26/31/33 25/29/32
f 19/23/26 20/24/27 27/32/34 26/31/33
f 20/24/27 21/25/28 28/33/35 27/32/34
f 21/25/28 22/26/29 29/34/36 28/33/35
f 22/26/29 17/20/24 24/28/31 29/34/36
f 24/28/31 23/27/30 30/35/37 31/36/38
f 23/30/30 25/29/32 32/37/39 30/38/37
f 25/29/32 26/31/33 33/39/40 32/37/39
f 26/31/33 27/32/34 34/40/41 33/39/40
f 27/32/34 28/33/35 35/41/42 34/40/41
f 28/33/35 29/34/36 36/42/43 35/41/42
f 29/34/36 24/28/31 31/36/38 36/42/43
f 31/36/38 30/35/37 37/43/44 38/44/45
f 30/38/37 32/37/39 39/45/46 37/46/44
f 32/37/39 33/39/40 40/47/47 39/45/46
f 33/39/40 34/40/41 41/48/48 40/47/47
f 34/40/41 35/41/42 42/49/49 41/48/48
f 35/41/42 36/42/43 43/50/50 42/49/49
f 36/42/43 31/36/38 38/44/45 43/50/50
s 3
f 44/51/51 43/50/52 38/44/53 37/43/54
f 44/51/51 37/46/54 39/45/55 40/47/56
f 44/51/51 40/47/56 41/48/57 42/49/58
f 44/51/51 42/49/58 43/50/52
v -2.478811 3.634552 -0.620506
v -2.321030 2.052195 0.033642
v -0.636449 2.220171 0.033642
v -0.794229 3.802528 -0.620506
v 1.048142 2.388147 0.033642
v 0.890361 3.970504 -0.620506
v 2.732723 2.556123 0.033642
v 2.574943 4.138480 -0.620506
v -2.641722 5.268306 -1.096511
v -0.957131 5.436282 -1.096511
v 0.727450 5.604258 -1.096511
v 2.412041 5.772225 -1.096511
v -2.809744 6.953448 -1.394382
v -1.125163 7.121424 -1.394382
v 0.559418 7.289400 -1.394382
v 2.244009 7.457376 -1.394382
vt 0.963000 0.370200
vt 0.963000 0.061500
vt 0.654300 0.061500
vt 0.654300 0.370200
vt 0.345700 0.061500
vt 0.345700 0.370200
vt 0.037000 0.061500
vt 0.037000 0.370200
vt 0.963000 0.678800
vt 0.654300 0.678800
vt 0.345700 0.678800
vt 0.037000 0.678800
vt 0.963000 0.987400
vt 0.654300 0.987400
vt 0.345700 0.987400
vt 0.037000 0.987400
vn -0.032736 0.328295 0.944008
vn -0.037747 0.378554 0.924809
vn -0.037747 0.378554 0.924809
vn -0.032735 0.328295 0.944008
vn -0.037747 0.378554 0.924809
vn -0.032735 0.328295 0.944008
vn -0.037747 0.378554 0.924809
vn -0.032735 0.328296 0.944008
vn -0.022441 0.225056 0.974087
vn -0.022441 0.225056 0.974087
vn -0.022441 0.225056 0.974087
vn -0.022440 0.225056 0.974087
vn -0.017188 0.172377 0.984881
vn -0.017188 0.172377 0.984881
vn -0.017188 0.172377 0.984881
vn -0.017188 0.172376 0.984881
s 1
usemtl 01___Default
f 45/52/59 46/53/60 47/54/61 48/55/62
f 48/55/62 47/54/61 49/56/63 50/57/64
f 50/57/64 49/56/63 51/58/65 52/59/66
f 53/60/67 45/52/59 48/55/62 54/61/68
f 54/61/68 48/55/62 50/57/64 55/62/69
f 55/62/69 50/57/64 52/59/66 56/63/70
f 57/64/71 53/60/67 54/61/68 58/65/72
f 58/65/72 54/61/68 55/62/69 59/66/73
f 59/66/73 55/62/69 56/63/70 60/67/74
v -0.852916 3.796678 -2.689204
v -1.262796 2.157719 -2.369091
v -0.438420 2.239917 -0.892707
v -0.028549 3.878876 -1.212828
v 0.385957 2.322116 0.583668
v 0.795827 3.961075 0.263547
v 1.210333 2.404323 2.060044
v 1.620204 4.043283 1.739932
v -0.602760 5.471615 -2.922146
v 0.221616 5.553814 -1.445771
v 1.045992 5.636012 0.030605
v 1.870360 5.718220 1.506989
v -0.512310 7.182531 -3.067909
v 0.312066 7.264730 -1.591533
v 1.136433 7.346928 -0.115158
v 1.960810 7.429136 1.361226
vt 0.037000 0.370200
vt 0.037000 0.061500
vt 0.345700 0.061500
vt 0.345700 0.370200
vt 0.654300 0.061500
vt 0.654300 0.370200
vt 0.963000 0.061500
vt 0.963000 0.370200
vt 0.037000 0.678800
vt 0.345700 0.678800
vt 0.654300 0.678800
vt 0.963000 0.678800
vt 0.037000 0.987400
vt 0.345700 0.987400
vt 0.654300 0.987400
vt 0.963000 0.987400
vn -0.851923 0.246613 0.461962
vn -0.840275 0.298532 0.452567
vn -0.840274 0.298532 0.452568
vn -0.851923 0.246613 0.461963
vn -0.840274 0.298531 0.452569
vn -0.851923 0.246613 0.461963
vn -0.840275 0.298530 0.452567
vn -0.851924 0.246612 0.461961
vn -0.867731 0.140769 0.476684
vn -0.867731 0.140769 0.476684
vn -0.867732 0.140768 0.476682
vn -0.867733 0.140767 0.476680
vn -0.871844 0.087153 0.481967
vn -0.871845 0.087152 0.481966
vn -0.871846 0.087150 0.481964
vn -0.871847 0.087150 0.481962
s 1
f 61/68/75 62/69/76 63/70/77 64/71/78
f 64/71/78 63/70/77 65/72/79 66/73/80
f 66/73/80 65/72/79 67/74/81 68/75/82
f 69/76/83 61/68/75 64/71/78 70/77/84
f 70/77/84 64/71/78 66/73/80 71/78/85
f 71/78/85 66/73/80 68/75/82 72/79/86
f 73/80/87 69/76/83 70/77/84 74/81/88
f 74/81/88 70/77/84 71/78/85 75/82/89
f 75/82/89 71/78/85 72/79/86 76/83/90
v 2.667290 4.147685 -0.271079
v 2.603903 2.543274 -0.886315
v 1.019546 2.385297 -0.311094
v 1.082933 3.989708 0.304142
v -0.564820 2.227311 0.264136
v -0.501433 3.831722 0.879362
v -2.149176 2.069334 0.839356
v -2.085789 3.673745 1.454592
v 2.665327 5.797484 0.176601
v 1.080961 5.639507 0.751831
v -0.503395 5.481521 1.327052
v -2.087761 5.323535 1.902273
v 2.597997 7.492672 0.456745
v 1.013640 7.334686 1.031966
v -0.570726 7.176709 1.607196
v -2.155082 7.018723 2.182416
vt 0.037000 0.370200
vt 0.037000 0.061500
vt 0.345700 0.061500
vt 0.345700 0.370200
vt 0.654300 0.061500
vt 0.654300 0.370200
vt 0.963000 0.061500
vt 0.963000 0.370200
vt 0.037000 0.678800
vt 0.345700 0.678800
vt 0.654300 0.678800
vt 0.963000 0.678800
vt 0.037000 0.987400
vt 0.345700 0.987400
vt 0.654300 0.987400
vt 0.963000 0.987400
vn -0.351905 0.296471 -0.887844
vn -0.350425 0.347378 -0.869788
vn -0.350426 0.347377 -0.869788
vn -0.351905 0.296471 -0.887844
vn -0.350427 0.347375 -0.869788
vn -0.351906 0.296471 -0.887844
vn -0.350427 0.347375 -0.869788
vn -0.351907 0.296470 -0.887844
vn -0.351782 0.192213 -0.916135
vn -0.351782 0.192214 -0.916135
vn -0.351781 0.192215 -0.916135
vn -0.351781 0.192215 -0.916135
vn -0.350179 0.139167 -0.926287
vn -0.350179 0.139167 -0.926287
vn -0.350178 0.139168 -0.926287
vn -0.350177 0.139169 -0.926287
s 1
f 77/84/91 78/85/92 79/86/93 80/87/94
f 80/87/94 79/86/93 81/88/95 82/89/96
f 82/89/96 81/88/95 83/90/97 84/91/98
f 85/92/99 77/84/91 80/87/94 86/93/100
f 86/93/100 80/87/94 82/89/96 87/94/101
f 87/94/101 82/89/96 84/91/98 88/95/102
f 89/96/103 85/92/99 86/93/100 90/97/104
f 90/97/104 86/93/100 87/94/101 91/98/105
f 91/98/105 87/94/101 88/95/102 92/99/106
v -0.995539 3.782455 2.319563
v -0.189469 2.264738 2.378315
v -0.038165 2.279830 0.692220
v -0.844244 3.797538 0.633468
v 0.113130 2.294913 -0.993876
v -0.692939 3.812630 -1.052627
v 0.264435 2.310005 -2.679971
v -0.541644 3.827713 -2.738723
v -1.630194 5.369167 2.276810
v -1.478889 5.384249 0.590715
v -1.327594 5.399341 -1.095381
v -1.176289 5.414424 -2.781476
v -2.093415 7.024872 2.250055
v -1.942119 7.039964 0.563960
v -1.790815 7.055047 -1.122135
v -1.639520 7.070129 -2.808230
vt 0.963000 0.370200
vt 0.963000 0.061500
vt 0.654300 0.061500
vt 0.654300 0.370200
vt 0.345700 0.061500
vt 0.345700 0.370200
vt 0.037000 0.061500
vt 0.037000 0.370200
vt 0.963000 0.678800
vt 0.654300 0.678800
vt 0.345700 0.678800
vt 0.037000 0.678800
vt 0.963000 0.987400
vt 0.654300 0.987400
vt 0.345700 0.987400
vt 0.037000 0.987400
vn 0.902817 0.421584 0.084785
vn 0.878779 0.469945 0.083061
vn 0.878779 0.469945 0.083061
vn 0.902817 0.421584 0.084786
vn 0.878779 0.469945 0.083061
vn 0.902817 0.421584 0.084786
vn 0.878779 0.469945 0.083061
vn 0.902817 0.421584 0.084785
vn 0.942923 0.321314 0.087487
vn 0.942923 0.321314 0.087487
vn 0.942923 0.321314 0.087487
vn 0.942923 0.321314 0.087486
vn 0.958874 0.269698 0.088457
vn 0.958874 0.269698 0.088457
vn 0.958873 0.269698 0.088456
vn 0.958873 0.269699 0.088456
s 1
f 93/100/107 94/101/108 95/102/109 96/103/110
f 96/103/110 95/102/109 97/104/111 98/105/112
f 98/105/112 97/104/111 99/106/113 100/107/114
f 101/108/115 93/100/107 96/103/110 102/109/116
f 102/109/116 96/103/110 98/105/112 103/110/117
f 103/110/117 98/105/112 100/107/114 104/111/118
f 105/112/119 101/108/115 102/109/116 106/113/120
f 106/113/120 102/109/116 103/110/117 107/114/121
f 107/114/121 103/110/117 104/111/118 108/115/122
